<svg width="1536" height="834" viewBox="0 0 1536 834" fill="none" xmlns="http://www.w3.org/2000/svg">
<g clip-path="url(#clip0_2460_60587)">
<rect width="1536" height="834" rx="4" fill="url(#paint0_radial_2460_60587)"/>
<g clip-path="url(#clip1_2460_60587)">
<g style="mix-blend-mode:plus-lighter" opacity="0.5">
<path d="M690.616 74.5711L-996.523 64.459L-1009.42 -71.2643C-303.476 -13.8204 -15.3263 17.1272 690.616 74.5711Z" fill="url(#paint1_linear_2460_60587)"/>
<path d="M804.504 68.8043L2491.57 50.0287L2506.79 185.511C1799.96 140.163 1511.33 114.153 804.504 68.8043Z" fill="url(#paint2_linear_2460_60587)"/>
<path d="M633.131 117.404L-592.902 863.979L-676.219 810.628C-134.207 521.409 91.1188 406.622 633.131 117.404Z" fill="url(#paint3_linear_2460_60587)"/>
<path d="M778.516 155.074L817.646 1011.49L770.66 1043.42C772.836 675.119 776.339 523.38 778.516 155.074Z" fill="url(#paint4_linear_2460_60587)"/>
<path d="M701.775 145.593L223.004 1140.72L155.391 1157.14C380.81 737.296 476.357 565.437 701.775 145.593Z" fill="url(#paint5_linear_2460_60587)"/>
<path d="M722.544 99.1227L-589.196 -800.072L-563.556 -910.616C-28.6817 -493.701 187.67 -317.793 722.544 99.1227Z" fill="url(#paint6_linear_2460_60587)"/>
<path d="M685.506 72.356L-508.914 -354.728L-545.841 -420.866C-35.1603 -217.498 174.825 -131.012 685.506 72.356Z" fill="url(#paint7_linear_2460_60587)"/>
<path d="M726.252 65.9215L10.3833 -750.348L35.9772 -819.321C323.328 -453.163 438.901 -300.236 726.252 65.9215Z" fill="url(#paint8_linear_2460_60587)"/>
<path d="M724.246 40.2877L633.39 1191.83L535.456 1183.24C611.619 708.228 648.083 515.3 724.246 40.2877Z" fill="url(#paint9_linear_2460_60587)"/>
<path d="M683.158 119.222L-267.263 1114.3L-229.949 945.188C150.244 598.146 302.965 466.263 683.158 119.222Z" fill="url(#paint10_linear_2460_60587)"/>
<path d="M797.599 125.532L1173.73 1246.65L1139.24 1310.79C996.515 819.887 940.324 616.437 797.599 125.532Z" fill="url(#paint11_linear_2460_60587)"/>
<path d="M743.745 48.8348L1421.9 948.021L1428.36 1011.98C1144.1 613.344 1028 447.472 743.745 48.8348Z" fill="url(#paint12_linear_2460_60587)"/>
<path d="M743.67 41.8417L2135.08 478.324L2185.56 546.704C1587.73 338.552 1341.5 249.993 743.67 41.8417Z" fill="url(#paint13_linear_2460_60587)"/>
<path d="M778.106 69.4522L1603.24 -163.202L1645.02 -124.699C1285.85 -43.1522 1137.28 -12.0941 778.106 69.4522Z" fill="url(#paint14_linear_2460_60587)"/>
<path d="M695.748 114.06L1626.23 -489.395L1692.77 -469.189C1280.12 -226.424 1108.4 -128.705 695.748 114.06Z" fill="url(#paint15_linear_2460_60587)"/>
<path d="M694.944 84.929L-429.352 300.907L-471.342 354.905C12.1932 243.999 211.408 195.835 694.944 84.929Z" fill="url(#paint16_linear_2460_60587)"/>
<path d="M724.194 58.5448L1363.03 -583.92L1421.66 -547.406C1133.27 -294.833 1012.59 -194.029 724.194 58.5448Z" fill="url(#paint17_linear_2460_60587)"/>
<path d="M717.154 55.8704L1114.32 -734.784L1097.84 -785.988C939.311 -437.442 875.682 -292.676 717.154 55.8704Z" fill="url(#paint18_linear_2460_60587)"/>
<path d="M710.539 70.3391L787.848 -783.479L838.729 -808.749C786.653 -444.137 762.616 -294.273 710.539 70.3391Z" fill="url(#paint19_linear_2460_60587)"/>
<path d="M706.195 45.9274L514.517 -680.738L515.308 -581.345C594.626 -318.46 626.877 -216.958 706.195 45.9274Z" fill="url(#paint20_linear_2460_60587)"/>
<path d="M751.203 53.9296L2029.88 828.475L1839.53 778.033C1383 476.054 1207.73 355.909 751.203 53.9296Z" fill="url(#paint21_linear_2460_60587)"/>
</g>
<g style="mix-blend-mode:plus-darker">
<path d="M690.683 76.1895L-996.05 114.56L-1012.84 -20.7368C-305.539 16.3988 -16.6182 39.0539 690.683 76.1895Z" fill="url(#paint22_linear_2460_60587)"/>
<path d="M804.359 67.1523L2490.19 -0.0917515L2509.29 134.898C1801.46 109.877 1512.19 92.1724 804.359 67.1523Z" fill="url(#paint23_linear_2460_60587)"/>
<path d="M634.453 120.656L-569.622 902.151L-654.438 851.216C-120.96 546.543 100.975 425.329 634.453 120.656Z" fill="url(#paint24_linear_2460_60587)"/>
<path d="M780.86 154.134L844.583 1009.07L798.533 1042.34C790.126 674.127 789.268 522.35 780.86 154.134Z" fill="url(#paint25_linear_2460_60587)"/>
<path d="M703.879 146.861L253.899 1155.33L186.786 1173.69C400.048 747.542 490.617 573.009 703.879 146.861Z" fill="url(#paint26_linear_2460_60587)"/>
<path d="M685.511 74.1216L-520.687 -318.466L-559.499 -383.515C-43.1856 -194.906 169.198 -114.488 685.511 74.1216Z" fill="url(#paint27_linear_2460_60587)"/>
<path d="M726.056 66.5189L-12.972 -728.844L10.6294 -798.523C308.383 -440.773 428.302 -291.231 726.056 66.5189Z" fill="url(#paint28_linear_2460_60587)"/>
<path d="M723.314 40.9541L665.585 1194.63L567.444 1188.86C629.926 711.855 660.832 517.959 723.314 40.9541Z" fill="url(#paint29_linear_2460_60587)"/>
<path d="M684.511 121.036L-236.925 1143.02L-204.485 972.897C165.578 615.075 314.447 478.858 684.511 121.036Z" fill="url(#paint30_linear_2460_60587)"/>
<path d="M799.086 124.054L1207.27 1233.9L1174.64 1299.01C1017.87 812.407 955.858 610.656 799.086 124.054Z" fill="url(#paint31_linear_2460_60587)"/>
<path d="M743.052 48.9361L1446.76 928.265L1455.06 992.014C1159.46 601.708 1038.65 439.241 743.052 48.9361Z" fill="url(#paint32_linear_2460_60587)"/>
<path d="M742.775 41.9491L2146.15 438.27L2198.58 505.171C1595.01 314.284 1346.34 232.836 742.775 41.9491Z" fill="url(#paint33_linear_2460_60587)"/>
<path d="M777.99 68.5583L1596.1 -187.71L1638.96 -150.422C1282.28 -58.589 1134.67 -23.2748 777.99 68.5583Z" fill="url(#paint34_linear_2460_60587)"/>
<path d="M696.948 115.514L1609.71 -514.429L1676.8 -496.142C1271.29 -241.62 1102.45 -139.007 696.948 115.514Z" fill="url(#paint35_linear_2460_60587)"/>
<path d="M695.307 86.4187L-422.318 334.613L-462.74 389.796C17.4092 265.041 215.158 211.173 695.307 86.4187Z" fill="url(#paint36_linear_2460_60587)"/>
<path d="M723.787 59.2044L1343.9 -601.351L1403.56 -566.538C1122.54 -305.782 1004.8 -201.551 723.787 59.2044Z" fill="url(#paint37_linear_2460_60587)"/>
<path d="M716.672 56.7335L1090.95 -745.007L1073.01 -795.716C924.563 -442.758 865.12 -296.224 716.672 56.7335Z" fill="url(#paint38_linear_2460_60587)"/>
<path d="M710.477 71.3867L763.22 -784.3L813.354 -811.022C771.776 -445.064 752.055 -294.572 710.477 71.3867Z" fill="url(#paint39_linear_2460_60587)"/>
<path d="M705.433 47.1098L492.954 -673.748L496.6 -574.419C583.439 -313.921 618.594 -213.388 705.433 47.1098Z" fill="url(#paint40_linear_2460_60587)"/>
<path d="M750.652 53.8152L2051.05 791.299L1859.33 746.348C1394.32 457.611 1215.66 342.552 750.652 53.8152Z" fill="url(#paint41_linear_2460_60587)"/>
</g>
<rect y="-4" width="1537" height="851" fill="url(#paint42_radial_2460_60587)"/>
</g>
</g>
<defs>
<radialGradient id="paint0_radial_2460_60587" cx="0" cy="0" r="1" gradientUnits="userSpaceOnUse" gradientTransform="translate(768 417) rotate(90) scale(369.126 679.828)">
<stop stop-color="#B91C1C"/>
<stop offset="0.915043" stop-color="#010101"/>
</radialGradient>
<linearGradient id="paint1_linear_2460_60587" x1="797.015" y1="62.7335" x2="-980.639" y2="231.635" gradientUnits="userSpaceOnUse">
<stop stop-color="#B75151" stop-opacity="0"/>
<stop offset="0.223958" stop-color="#450A0A"/>
</linearGradient>
<linearGradient id="paint2_linear_2460_60587" x1="806.276" y1="84.5786" x2="2474.4" y2="-102.787" gradientUnits="userSpaceOnUse">
<stop offset="0.104167" stop-color="#450A0A" stop-opacity="0"/>
<stop offset="0.223958" stop-color="#450A0A"/>
</linearGradient>
<linearGradient id="paint3_linear_2460_60587" x1="703.649" y1="64.8898" x2="-36.2722" y2="1220.41" gradientUnits="userSpaceOnUse">
<stop stop-color="#B75151" stop-opacity="0"/>
<stop offset="0.223958" stop-color="#450A0A"/>
</linearGradient>
<linearGradient id="paint4_linear_2460_60587" x1="771.699" y1="103.399" x2="1208.39" y2="745.931" gradientUnits="userSpaceOnUse">
<stop stop-color="#B75151" stop-opacity="0"/>
<stop offset="0.223958" stop-color="#450A0A"/>
</linearGradient>
<linearGradient id="paint5_linear_2460_60587" x1="726.087" y1="83.6469" x2="940.504" y2="966.45" gradientUnits="userSpaceOnUse">
<stop stop-color="#B75151" stop-opacity="0"/>
<stop offset="0.223958" stop-color="#450A0A"/>
</linearGradient>
<linearGradient id="paint6_linear_2460_60587" x1="808.549" y1="146.296" x2="-726.137" y2="-209.665" gradientUnits="userSpaceOnUse">
<stop stop-color="#B75151" stop-opacity="0"/>
<stop offset="0.223958" stop-color="#450A0A"/>
</linearGradient>
<linearGradient id="paint7_linear_2460_60587" x1="758.275" y1="93.5074" x2="-16.9892" y2="526.353" gradientUnits="userSpaceOnUse">
<stop stop-color="#B75151" stop-opacity="0"/>
<stop offset="0.223958" stop-color="#450A0A"/>
</linearGradient>
<linearGradient id="paint8_linear_2460_60587" x1="774.255" y1="111.63" x2="-178.31" y2="-241.842" gradientUnits="userSpaceOnUse">
<stop stop-color="#B75151" stop-opacity="0"/>
<stop offset="0.223958" stop-color="#450A0A"/>
</linearGradient>
<linearGradient id="paint9_linear_2460_60587" x1="712.843" y1="39.2875" x2="611.91" y2="1189.95" gradientUnits="userSpaceOnUse">
<stop offset="0.127329" stop-color="#450A0A" stop-opacity="0"/>
<stop offset="0.474815" stop-color="#450A0A"/>
<stop offset="0.942708" stop-color="#450A0A" stop-opacity="0"/>
</linearGradient>
<linearGradient id="paint10_linear_2460_60587" x1="747.196" y1="40.2145" x2="5.82179" y2="-123.366" gradientUnits="userSpaceOnUse">
<stop stop-color="#B75151" stop-opacity="0"/>
<stop offset="0.223958" stop-color="#450A0A"/>
</linearGradient>
<linearGradient id="paint11_linear_2460_60587" x1="770.442" y1="59.9398" x2="1578.26" y2="494.282" gradientUnits="userSpaceOnUse">
<stop stop-color="#B75151" stop-opacity="0"/>
<stop offset="0.223958" stop-color="#450A0A"/>
</linearGradient>
<linearGradient id="paint12_linear_2460_60587" x1="701.095" y1="-2.62192" x2="1319.62" y2="-65.0697" gradientUnits="userSpaceOnUse">
<stop stop-color="#B75151" stop-opacity="0"/>
<stop offset="0.223958" stop-color="#450A0A"/>
</linearGradient>
<linearGradient id="paint13_linear_2460_60587" x1="749.548" y1="49.8032" x2="1441.58" y2="-461.079" gradientUnits="userSpaceOnUse">
<stop offset="0.161458" stop-color="#450A0A" stop-opacity="0"/>
<stop offset="0.223958" stop-color="#450A0A"/>
</linearGradient>
<linearGradient id="paint14_linear_2460_60587" x1="782.97" y1="73.9352" x2="1277.94" y2="-463.053" gradientUnits="userSpaceOnUse">
<stop offset="0.140625" stop-color="#450A0A" stop-opacity="0"/>
<stop offset="0.223958" stop-color="#450A0A"/>
</linearGradient>
<linearGradient id="paint15_linear_2460_60587" x1="703.495" y1="116.413" x2="949.851" y2="-694.803" gradientUnits="userSpaceOnUse">
<stop offset="0.127329" stop-color="#450A0A" stop-opacity="0"/>
<stop offset="0.474815" stop-color="#450A0A"/>
<stop offset="0.901042" stop-color="#450A0A"/>
</linearGradient>
<linearGradient id="paint16_linear_2460_60587" x1="690.055" y1="91.216" x2="94.0854" y2="-372.221" gradientUnits="userSpaceOnUse">
<stop offset="0.127329" stop-color="#450A0A" stop-opacity="0"/>
<stop offset="0.474815" stop-color="#450A0A"/>
<stop offset="0.901042" stop-color="#450A0A"/>
</linearGradient>
<linearGradient id="paint17_linear_2460_60587" x1="731.021" y1="62.7961" x2="1197.85" y2="-686.793" gradientUnits="userSpaceOnUse">
<stop offset="0.114583" stop-color="#450A0A" stop-opacity="0"/>
<stop offset="0.223958" stop-color="#450A0A"/>
</linearGradient>
<linearGradient id="paint18_linear_2460_60587" x1="690.312" y1="101.579" x2="1318.43" y2="-100.562" gradientUnits="userSpaceOnUse">
<stop stop-color="#B75151" stop-opacity="0"/>
<stop offset="0.223958" stop-color="#450A0A"/>
</linearGradient>
<linearGradient id="paint19_linear_2460_60587" x1="716.463" y1="67.3969" x2="391.609" y2="-586.684" gradientUnits="userSpaceOnUse">
<stop offset="0.119792" stop-color="#450A0A" stop-opacity="0"/>
<stop offset="0.223958" stop-color="#450A0A"/>
</linearGradient>
<linearGradient id="paint20_linear_2460_60587" x1="718.491" y1="101.406" x2="520.749" y2="102.979" gradientUnits="userSpaceOnUse">
<stop stop-color="#B75151" stop-opacity="0"/>
<stop offset="0.223958" stop-color="#450A0A"/>
</linearGradient>
<linearGradient id="paint21_linear_2460_60587" x1="729.04" y1="48.0567" x2="621.157" y2="455.177" gradientUnits="userSpaceOnUse">
<stop offset="0.127329" stop-color="#450A0A" stop-opacity="0"/>
<stop offset="0.474815" stop-color="#450A0A"/>
<stop offset="0.864583" stop-color="#450A0A" stop-opacity="0.32"/>
</linearGradient>
<linearGradient id="paint22_linear_2460_60587" x1="688.728" y1="60.4369" x2="-977.111" y2="267.165" gradientUnits="userSpaceOnUse">
<stop offset="0.125" stop-color="#450A0A" stop-opacity="0"/>
<stop offset="0.223958" stop-color="#450A0A"/>
</linearGradient>
<linearGradient id="paint23_linear_2460_60587" x1="806.583" y1="82.8691" x2="2468.64" y2="-152.351" gradientUnits="userSpaceOnUse">
<stop offset="0.104167" stop-color="#450A0A" stop-opacity="0"/>
<stop offset="0.223958" stop-color="#450A0A"/>
</linearGradient>
<linearGradient id="paint24_linear_2460_60587" x1="703.433" y1="66.1371" x2="-2.98029" y2="1242.44" gradientUnits="userSpaceOnUse">
<stop stop-color="#B75151" stop-opacity="0"/>
<stop offset="0.223958" stop-color="#450A0A"/>
</linearGradient>
<linearGradient id="paint25_linear_2460_60587" x1="772.562" y1="102.676" x2="1227.53" y2="732.395" gradientUnits="userSpaceOnUse">
<stop stop-color="#B75151" stop-opacity="0"/>
<stop offset="0.223958" stop-color="#450A0A"/>
</linearGradient>
<linearGradient id="paint26_linear_2460_60587" x1="696.065" y1="148.999" x2="921.391" y2="972.747" gradientUnits="userSpaceOnUse">
<stop offset="0.0885417" stop-color="#450A0A" stop-opacity="0"/>
<stop offset="0.223958" stop-color="#450A0A"/>
</linearGradient>
<linearGradient id="paint27_linear_2460_60587" x1="680.993" y1="66.5478" x2="-35.8053" y2="494.22" gradientUnits="userSpaceOnUse">
<stop offset="0.104167" stop-color="#450A0A" stop-opacity="0"/>
<stop offset="0.223958" stop-color="#450A0A"/>
</linearGradient>
<linearGradient id="paint28_linear_2460_60587" x1="728.804" y1="58.4061" x2="-175.838" y2="-248.009" gradientUnits="userSpaceOnUse">
<stop offset="0.125" stop-color="#450A0A" stop-opacity="0"/>
<stop offset="0.223958" stop-color="#450A0A"/>
</linearGradient>
<linearGradient id="paint29_linear_2460_60587" x1="711.888" y1="40.282" x2="644.059" y2="1193.37" gradientUnits="userSpaceOnUse">
<stop offset="0.127329" stop-color="#450A0A" stop-opacity="0"/>
<stop offset="0.474815" stop-color="#450A0A"/>
<stop offset="0.942708" stop-color="#450A0A" stop-opacity="0"/>
</linearGradient>
<linearGradient id="paint30_linear_2460_60587" x1="688.288" y1="101.229" x2="-12.7751" y2="-32.4563" gradientUnits="userSpaceOnUse">
<stop offset="0.0989583" stop-color="#450A0A" stop-opacity="0"/>
<stop offset="0.223958" stop-color="#450A0A"/>
</linearGradient>
<linearGradient id="paint31_linear_2460_60587" x1="795.287" y1="131.635" x2="1566.1" y2="517.951" gradientUnits="userSpaceOnUse">
<stop offset="0.0833333" stop-color="#450A0A" stop-opacity="0"/>
<stop offset="0.223958" stop-color="#450A0A"/>
</linearGradient>
<linearGradient id="paint32_linear_2460_60587" x1="744.017" y1="56.3583" x2="1323.53" y2="-19.029" gradientUnits="userSpaceOnUse">
<stop offset="0.166667" stop-color="#450A0A" stop-opacity="0"/>
<stop offset="0.223958" stop-color="#450A0A"/>
</linearGradient>
<linearGradient id="paint33_linear_2460_60587" x1="748.879" y1="49.7384" x2="1425.95" y2="-480.817" gradientUnits="userSpaceOnUse">
<stop offset="0.161458" stop-color="#450A0A" stop-opacity="0"/>
<stop offset="0.223958" stop-color="#450A0A"/>
</linearGradient>
<linearGradient id="paint34_linear_2460_60587" x1="782.98" y1="72.8997" x2="1262.32" y2="-478.089" gradientUnits="userSpaceOnUse">
<stop offset="0.145833" stop-color="#450A0A" stop-opacity="0"/>
<stop offset="0.223958" stop-color="#450A0A"/>
</linearGradient>
<linearGradient id="paint35_linear_2460_60587" x1="704.759" y1="117.643" x2="927.704" y2="-700.317" gradientUnits="userSpaceOnUse">
<stop offset="0.127329" stop-color="#450A0A" stop-opacity="0"/>
<stop offset="0.474815" stop-color="#450A0A"/>
<stop offset="0.901042" stop-color="#450A0A"/>
</linearGradient>
<linearGradient id="paint36_linear_2460_60587" x1="690.601" y1="92.8436" x2="81.561" y2="-353.278" gradientUnits="userSpaceOnUse">
<stop offset="0.127329" stop-color="#450A0A" stop-opacity="0"/>
<stop offset="0.474815" stop-color="#450A0A"/>
<stop offset="0.901042" stop-color="#450A0A"/>
</linearGradient>
<linearGradient id="paint37_linear_2460_60587" x1="730.733" y1="63.2578" x2="1175.83" y2="-699.436" gradientUnits="userSpaceOnUse">
<stop offset="0.114583" stop-color="#450A0A" stop-opacity="0"/>
<stop offset="0.223958" stop-color="#450A0A"/>
</linearGradient>
<linearGradient id="paint38_linear_2460_60587" x1="714.583" y1="50.8295" x2="1299.34" y2="-156.083" gradientUnits="userSpaceOnUse">
<stop offset="0.125" stop-color="#450A0A" stop-opacity="0"/>
<stop offset="0.223958" stop-color="#450A0A"/>
</linearGradient>
<linearGradient id="paint39_linear_2460_60587" x1="716.314" y1="68.2755" x2="372.8" y2="-576.201" gradientUnits="userSpaceOnUse">
<stop offset="0.119792" stop-color="#450A0A" stop-opacity="0"/>
<stop offset="0.223958" stop-color="#450A0A"/>
</linearGradient>
<linearGradient id="paint40_linear_2460_60587" x1="705.858" y1="58.6747" x2="520.089" y2="65.4936" gradientUnits="userSpaceOnUse">
<stop offset="0.130208" stop-color="#450A0A" stop-opacity="0"/>
<stop offset="0.223958" stop-color="#450A0A"/>
</linearGradient>
<linearGradient id="paint41_linear_2460_60587" x1="728.33" y1="48.5815" x2="632.19" y2="458.633" gradientUnits="userSpaceOnUse">
<stop offset="0.127329" stop-color="#450A0A" stop-opacity="0"/>
<stop offset="0.474815" stop-color="#450A0A"/>
<stop offset="0.864583" stop-color="#450A0A" stop-opacity="0.32"/>
</linearGradient>
<radialGradient id="paint42_radial_2460_60587" cx="0" cy="0" r="1" gradientUnits="userSpaceOnUse" gradientTransform="translate(768.5 421.5) rotate(90) scale(425.5 768.5)">
<stop stop-color="#F30000" stop-opacity="0"/>
<stop offset="1"/>
</radialGradient>
<clipPath id="clip0_2460_60587">
<rect width="1536" height="834" rx="4" fill="white"/>
</clipPath>
<clipPath id="clip1_2460_60587">
<rect width="1536" height="851" fill="white" transform="translate(0 -4)"/>
</clipPath>
</defs>
</svg>
