<svg width="3758" height="2743" viewBox="0 0 3758 2743" fill="none" xmlns="http://www.w3.org/2000/svg">
<g style="mix-blend-mode:plus-lighter" opacity="0.5">
<path d="M1822.62 1372.57L135.477 1362.46L122.582 1226.74C828.524 1284.18 1116.67 1315.13 1822.62 1372.57Z" fill="url(#paint0_linear_270_1952)"/>
<path d="M1936.5 1366.8L3623.57 1348.03L3638.79 1483.51C2931.96 1438.16 2643.33 1412.15 1936.5 1366.8Z" fill="url(#paint1_linear_270_1952)"/>
<path d="M1765.13 1415.4L539.098 2161.98L455.781 2108.63C997.793 1819.41 1223.12 1704.62 1765.13 1415.4Z" fill="url(#paint2_linear_270_1952)"/>
<path d="M1910.52 1453.07L1949.65 2309.49L1902.66 2341.43C1904.84 1973.12 1908.34 1821.38 1910.52 1453.07Z" fill="url(#paint3_linear_270_1952)"/>
<path d="M1833.77 1443.59L1355 2438.72L1287.39 2455.14C1512.81 2035.3 1608.36 1863.44 1833.77 1443.59Z" fill="url(#paint4_linear_270_1952)"/>
<path d="M1854.54 1397.12L542.804 497.928L568.444 387.384C1103.32 804.299 1319.67 980.207 1854.54 1397.12Z" fill="url(#paint5_linear_270_1952)"/>
<path d="M1817.51 1370.36L623.086 943.272L586.159 877.134C1096.84 1080.5 1306.83 1166.99 1817.51 1370.36Z" fill="url(#paint6_linear_270_1952)"/>
<path d="M1858.25 1363.92L1142.38 547.652L1167.98 478.679C1455.33 844.837 1570.9 997.763 1858.25 1363.92Z" fill="url(#paint7_linear_270_1952)"/>
<path d="M1856.25 1338.29L1765.39 2489.83L1667.46 2481.24C1743.62 2006.23 1780.08 1813.3 1856.25 1338.29Z" fill="url(#paint8_linear_270_1952)"/>
<path d="M1815.16 1417.22L864.737 2412.3L902.051 2243.19C1282.24 1896.15 1434.97 1764.26 1815.16 1417.22Z" fill="url(#paint9_linear_270_1952)"/>
<path d="M1929.6 1423.53L2305.73 2544.65L2271.24 2608.79C2128.51 2117.89 2072.32 1914.44 1929.6 1423.53Z" fill="url(#paint10_linear_270_1952)"/>
<path d="M1875.75 1346.83L2553.9 2246.02L2560.36 2309.98C2276.1 1911.34 2160 1745.47 1875.75 1346.83Z" fill="url(#paint11_linear_270_1952)"/>
<path d="M1875.67 1339.84L3267.08 1776.32L3317.56 1844.7C2719.73 1636.55 2473.5 1547.99 1875.67 1339.84Z" fill="url(#paint12_linear_270_1952)"/>
<path d="M1910.11 1367.45L2735.24 1134.8L2777.02 1173.3C2417.85 1254.85 2269.28 1285.91 1910.11 1367.45Z" fill="url(#paint13_linear_270_1952)"/>
<path d="M1827.75 1412.06L2758.23 808.604L2824.77 828.811C2412.12 1071.58 2240.4 1169.3 1827.75 1412.06Z" fill="url(#paint14_linear_270_1952)"/>
<path d="M1826.94 1382.93L702.648 1598.91L660.658 1652.91C1144.19 1542 1343.41 1493.84 1826.94 1382.93Z" fill="url(#paint15_linear_270_1952)"/>
<path d="M1856.19 1356.54L2495.03 714.08L2553.66 750.594C2265.27 1003.17 2144.59 1103.97 1856.19 1356.54Z" fill="url(#paint16_linear_270_1952)"/>
<path d="M1849.15 1353.87L2246.32 563.216L2229.84 512.012C2071.31 860.559 2007.68 1005.32 1849.15 1353.87Z" fill="url(#paint17_linear_270_1952)"/>
<path d="M1842.54 1368.34L1919.85 514.521L1970.73 489.251C1918.65 853.863 1894.62 1003.73 1842.54 1368.34Z" fill="url(#paint18_linear_270_1952)"/>
<path d="M1838.2 1343.93L1646.52 617.262L1647.31 716.655C1726.63 979.54 1758.88 1081.04 1838.2 1343.93Z" fill="url(#paint19_linear_270_1952)"/>
<path d="M1883.2 1351.93L3161.88 2126.47L2971.53 2076.03C2515 1774.05 2339.73 1653.91 1883.2 1351.93Z" fill="url(#paint20_linear_270_1952)"/>
</g>
<g style="mix-blend-mode:darken">
<path d="M1822.68 1374.19L135.95 1412.56L119.16 1277.26C826.461 1314.4 1115.38 1337.05 1822.68 1374.19Z" fill="url(#paint21_linear_270_1952)"/>
<path d="M1936.36 1365.15L3622.19 1297.91L3641.29 1432.9C2933.46 1407.88 2644.19 1390.17 1936.36 1365.15Z" fill="url(#paint22_linear_270_1952)"/>
<path d="M1766.45 1418.66L562.378 2200.15L477.562 2149.22C1011.04 1844.54 1232.97 1723.33 1766.45 1418.66Z" fill="url(#paint23_linear_270_1952)"/>
<path d="M1912.86 1452.13L1976.58 2307.07L1930.53 2340.34C1922.13 1972.13 1921.27 1820.35 1912.86 1452.13Z" fill="url(#paint24_linear_270_1952)"/>
<path d="M1835.88 1444.86L1385.9 2453.33L1318.79 2471.69C1532.05 2045.54 1622.62 1871.01 1835.88 1444.86Z" fill="url(#paint25_linear_270_1952)"/>
<path d="M1855.3 1397.81L518.268 536.681L540.721 425.446C1087.35 826.82 1308.67 996.439 1855.3 1397.81Z" fill="url(#paint26_linear_270_1952)"/>
<path d="M1817.51 1372.12L611.313 979.535L572.501 914.485C1088.81 1103.09 1301.2 1183.51 1817.51 1372.12Z" fill="url(#paint27_linear_270_1952)"/>
<path d="M1858.06 1364.52L1119.03 569.156L1142.63 499.477C1440.38 857.227 1560.3 1006.77 1858.06 1364.52Z" fill="url(#paint28_linear_270_1952)"/>
<path d="M1855.31 1338.95L1797.58 2492.63L1699.44 2486.86C1761.93 2009.85 1792.83 1815.96 1855.31 1338.95Z" fill="url(#paint29_linear_270_1952)"/>
<path d="M1816.51 1419.04L895.075 2441.02L927.515 2270.9C1297.58 1913.08 1446.45 1776.86 1816.51 1419.04Z" fill="url(#paint30_linear_270_1952)"/>
<path d="M1931.09 1422.05L2339.27 2531.9L2306.64 2597.01C2149.87 2110.41 2087.86 1908.66 1931.09 1422.05Z" fill="url(#paint31_linear_270_1952)"/>
<path d="M1875.05 1346.94L2578.76 2226.27L2587.06 2290.01C2291.46 1899.71 2170.65 1737.24 1875.05 1346.94Z" fill="url(#paint32_linear_270_1952)"/>
<path d="M1874.78 1339.95L3278.15 1736.27L3330.58 1803.17C2727.01 1612.28 2478.34 1530.84 1874.78 1339.95Z" fill="url(#paint33_linear_270_1952)"/>
<path d="M1909.99 1366.56L2728.1 1110.29L2770.96 1147.58C2414.28 1239.41 2266.67 1274.73 1909.99 1366.56Z" fill="url(#paint34_linear_270_1952)"/>
<path d="M1828.95 1413.51L2741.71 783.571L2808.8 801.858C2403.29 1056.38 2234.45 1158.99 1828.95 1413.51Z" fill="url(#paint35_linear_270_1952)"/>
<path d="M1827.31 1384.42L709.682 1632.61L669.26 1687.8C1149.41 1563.04 1347.16 1509.17 1827.31 1384.42Z" fill="url(#paint36_linear_270_1952)"/>
<path d="M1855.79 1357.2L2475.9 696.649L2535.56 731.462C2254.54 992.218 2136.8 1096.45 1855.79 1357.2Z" fill="url(#paint37_linear_270_1952)"/>
<path d="M1848.67 1354.73L2222.95 552.993L2205.01 502.285C2056.56 855.242 1997.12 1001.78 1848.67 1354.73Z" fill="url(#paint38_linear_270_1952)"/>
<path d="M1842.48 1369.39L1895.22 513.7L1945.35 486.978C1903.78 852.936 1884.05 1003.43 1842.48 1369.39Z" fill="url(#paint39_linear_270_1952)"/>
<path d="M1837.43 1345.11L1624.95 624.252L1628.6 723.581C1715.44 984.079 1750.59 1084.61 1837.43 1345.11Z" fill="url(#paint40_linear_270_1952)"/>
<path d="M1882.65 1351.82L3183.05 2089.3L2991.33 2044.35C2526.32 1755.61 2347.66 1640.55 1882.65 1351.82Z" fill="url(#paint41_linear_270_1952)"/>
</g>
<defs>
<linearGradient id="paint0_linear_270_1952" x1="1929.01" y1="1360.73" x2="151.361" y2="1529.64" gradientUnits="userSpaceOnUse">
<stop stop-color="#450A0A" stop-opacity="0"/>
<stop offset="0.223958" stop-color="#450A0A"/>
</linearGradient>
<linearGradient id="paint1_linear_270_1952" x1="1938.28" y1="1382.58" x2="3606.4" y2="1195.21" gradientUnits="userSpaceOnUse">
<stop offset="0.104167" stop-color="#450A0A" stop-opacity="0"/>
<stop offset="0.223958" stop-color="#450A0A"/>
</linearGradient>
<linearGradient id="paint2_linear_270_1952" x1="1835.65" y1="1362.89" x2="1095.73" y2="2518.41" gradientUnits="userSpaceOnUse">
<stop stop-color="#450A0A" stop-opacity="0"/>
<stop offset="0.223958" stop-color="#450A0A"/>
</linearGradient>
<linearGradient id="paint3_linear_270_1952" x1="1903.7" y1="1401.4" x2="2340.39" y2="2043.93" gradientUnits="userSpaceOnUse">
<stop stop-color="#450A0A" stop-opacity="0"/>
<stop offset="0.223958" stop-color="#450A0A"/>
</linearGradient>
<linearGradient id="paint4_linear_270_1952" x1="1858.09" y1="1381.65" x2="2072.5" y2="2264.45" gradientUnits="userSpaceOnUse">
<stop stop-color="#450A0A" stop-opacity="0"/>
<stop offset="0.223958" stop-color="#450A0A"/>
</linearGradient>
<linearGradient id="paint5_linear_270_1952" x1="1940.55" y1="1444.3" x2="405.863" y2="1088.34" gradientUnits="userSpaceOnUse">
<stop stop-color="#450A0A" stop-opacity="0"/>
<stop offset="0.223958" stop-color="#450A0A"/>
</linearGradient>
<linearGradient id="paint6_linear_270_1952" x1="1890.27" y1="1391.51" x2="1115.01" y2="1824.35" gradientUnits="userSpaceOnUse">
<stop stop-color="#450A0A" stop-opacity="0"/>
<stop offset="0.223958" stop-color="#450A0A"/>
</linearGradient>
<linearGradient id="paint7_linear_270_1952" x1="1906.26" y1="1409.63" x2="953.69" y2="1056.16" gradientUnits="userSpaceOnUse">
<stop stop-color="#450A0A" stop-opacity="0"/>
<stop offset="0.223958" stop-color="#450A0A"/>
</linearGradient>
<linearGradient id="paint8_linear_270_1952" x1="1844.84" y1="1337.29" x2="1743.91" y2="2487.95" gradientUnits="userSpaceOnUse">
<stop offset="0.127329" stop-color="#450A0A" stop-opacity="0"/>
<stop offset="0.474815" stop-color="#450A0A"/>
<stop offset="0.942708" stop-color="#450A0A" stop-opacity="0"/>
</linearGradient>
<linearGradient id="paint9_linear_270_1952" x1="1879.2" y1="1338.21" x2="1137.82" y2="1174.63" gradientUnits="userSpaceOnUse">
<stop stop-color="#450A0A" stop-opacity="0"/>
<stop offset="0.223958" stop-color="#450A0A"/>
</linearGradient>
<linearGradient id="paint10_linear_270_1952" x1="1902.44" y1="1357.94" x2="2710.26" y2="1792.28" gradientUnits="userSpaceOnUse">
<stop stop-color="#450A0A" stop-opacity="0"/>
<stop offset="0.223958" stop-color="#450A0A"/>
</linearGradient>
<linearGradient id="paint11_linear_270_1952" x1="1833.09" y1="1295.38" x2="2451.62" y2="1232.93" gradientUnits="userSpaceOnUse">
<stop stop-color="#450A0A" stop-opacity="0"/>
<stop offset="0.223958" stop-color="#450A0A"/>
</linearGradient>
<linearGradient id="paint12_linear_270_1952" x1="1881.55" y1="1347.8" x2="2573.58" y2="836.922" gradientUnits="userSpaceOnUse">
<stop offset="0.161458" stop-color="#450A0A" stop-opacity="0"/>
<stop offset="0.223958" stop-color="#450A0A"/>
</linearGradient>
<linearGradient id="paint13_linear_270_1952" x1="1914.97" y1="1371.94" x2="2409.94" y2="834.947" gradientUnits="userSpaceOnUse">
<stop offset="0.140625" stop-color="#450A0A" stop-opacity="0"/>
<stop offset="0.223958" stop-color="#450A0A"/>
</linearGradient>
<linearGradient id="paint14_linear_270_1952" x1="1835.49" y1="1414.41" x2="2081.85" y2="603.196" gradientUnits="userSpaceOnUse">
<stop offset="0.127329" stop-color="#450A0A" stop-opacity="0"/>
<stop offset="0.474815" stop-color="#450A0A"/>
<stop offset="0.901042" stop-color="#450A0A"/>
</linearGradient>
<linearGradient id="paint15_linear_270_1952" x1="1822.05" y1="1389.22" x2="1226.09" y2="925.779" gradientUnits="userSpaceOnUse">
<stop offset="0.127329" stop-color="#450A0A" stop-opacity="0"/>
<stop offset="0.474815" stop-color="#450A0A"/>
<stop offset="0.901042" stop-color="#450A0A"/>
</linearGradient>
<linearGradient id="paint16_linear_270_1952" x1="1863.02" y1="1360.8" x2="2329.85" y2="611.206" gradientUnits="userSpaceOnUse">
<stop offset="0.114583" stop-color="#450A0A" stop-opacity="0"/>
<stop offset="0.223958" stop-color="#450A0A"/>
</linearGradient>
<linearGradient id="paint17_linear_270_1952" x1="1822.31" y1="1399.58" x2="2450.43" y2="1197.44" gradientUnits="userSpaceOnUse">
<stop stop-color="#450A0A" stop-opacity="0"/>
<stop offset="0.223958" stop-color="#450A0A"/>
</linearGradient>
<linearGradient id="paint18_linear_270_1952" x1="1848.46" y1="1365.4" x2="1523.61" y2="711.316" gradientUnits="userSpaceOnUse">
<stop offset="0.119792" stop-color="#450A0A" stop-opacity="0"/>
<stop offset="0.223958" stop-color="#450A0A"/>
</linearGradient>
<linearGradient id="paint19_linear_270_1952" x1="1850.49" y1="1399.41" x2="1652.75" y2="1400.98" gradientUnits="userSpaceOnUse">
<stop stop-color="#450A0A" stop-opacity="0"/>
<stop offset="0.223958" stop-color="#450A0A"/>
</linearGradient>
<linearGradient id="paint20_linear_270_1952" x1="1861.04" y1="1346.06" x2="1753.16" y2="1753.18" gradientUnits="userSpaceOnUse">
<stop offset="0.127329" stop-color="#450A0A" stop-opacity="0"/>
<stop offset="0.474815" stop-color="#450A0A"/>
<stop offset="0.864583" stop-color="#450A0A" stop-opacity="0.32"/>
</linearGradient>
<linearGradient id="paint21_linear_270_1952" x1="1820.73" y1="1358.44" x2="154.889" y2="1565.17" gradientUnits="userSpaceOnUse">
<stop offset="0.125" stop-color="#450A0A" stop-opacity="0"/>
<stop offset="0.223958" stop-color="#450A0A"/>
</linearGradient>
<linearGradient id="paint22_linear_270_1952" x1="1938.58" y1="1380.87" x2="3600.64" y2="1145.65" gradientUnits="userSpaceOnUse">
<stop offset="0.104167" stop-color="#450A0A" stop-opacity="0"/>
<stop offset="0.223958" stop-color="#450A0A"/>
</linearGradient>
<linearGradient id="paint23_linear_270_1952" x1="1835.43" y1="1364.14" x2="1129.02" y2="2540.44" gradientUnits="userSpaceOnUse">
<stop stop-color="#450A0A" stop-opacity="0"/>
<stop offset="0.223958" stop-color="#450A0A"/>
</linearGradient>
<linearGradient id="paint24_linear_270_1952" x1="1904.56" y1="1400.68" x2="2359.53" y2="2030.39" gradientUnits="userSpaceOnUse">
<stop stop-color="#450A0A" stop-opacity="0"/>
<stop offset="0.223958" stop-color="#450A0A"/>
</linearGradient>
<linearGradient id="paint25_linear_270_1952" x1="1828.06" y1="1447" x2="2053.39" y2="2270.75" gradientUnits="userSpaceOnUse">
<stop offset="0.0885417" stop-color="#450A0A" stop-opacity="0"/>
<stop offset="0.223958" stop-color="#450A0A"/>
</linearGradient>
<linearGradient id="paint26_linear_270_1952" x1="1857.92" y1="1384.86" x2="406.21" y2="1091.83" gradientUnits="userSpaceOnUse">
<stop offset="0.104167" stop-color="#450A0A" stop-opacity="0"/>
<stop offset="0.223958" stop-color="#450A0A"/>
</linearGradient>
<linearGradient id="paint27_linear_270_1952" x1="1812.99" y1="1364.55" x2="1096.19" y2="1792.22" gradientUnits="userSpaceOnUse">
<stop offset="0.104167" stop-color="#450A0A" stop-opacity="0"/>
<stop offset="0.223958" stop-color="#450A0A"/>
</linearGradient>
<linearGradient id="paint28_linear_270_1952" x1="1860.8" y1="1356.41" x2="956.162" y2="1049.99" gradientUnits="userSpaceOnUse">
<stop offset="0.125" stop-color="#450A0A" stop-opacity="0"/>
<stop offset="0.223958" stop-color="#450A0A"/>
</linearGradient>
<linearGradient id="paint29_linear_270_1952" x1="1843.89" y1="1338.28" x2="1776.06" y2="2491.37" gradientUnits="userSpaceOnUse">
<stop offset="0.127329" stop-color="#450A0A" stop-opacity="0"/>
<stop offset="0.474815" stop-color="#450A0A"/>
<stop offset="0.942708" stop-color="#450A0A" stop-opacity="0"/>
</linearGradient>
<linearGradient id="paint30_linear_270_1952" x1="1820.29" y1="1399.23" x2="1119.22" y2="1265.54" gradientUnits="userSpaceOnUse">
<stop offset="0.0989583" stop-color="#450A0A" stop-opacity="0"/>
<stop offset="0.223958" stop-color="#450A0A"/>
</linearGradient>
<linearGradient id="paint31_linear_270_1952" x1="1927.29" y1="1429.64" x2="2698.1" y2="1815.95" gradientUnits="userSpaceOnUse">
<stop offset="0.0833333" stop-color="#450A0A" stop-opacity="0"/>
<stop offset="0.223958" stop-color="#450A0A"/>
</linearGradient>
<linearGradient id="paint32_linear_270_1952" x1="1876.02" y1="1354.36" x2="2455.53" y2="1278.97" gradientUnits="userSpaceOnUse">
<stop offset="0.166667" stop-color="#450A0A" stop-opacity="0"/>
<stop offset="0.223958" stop-color="#450A0A"/>
</linearGradient>
<linearGradient id="paint33_linear_270_1952" x1="1880.88" y1="1347.74" x2="2557.95" y2="817.182" gradientUnits="userSpaceOnUse">
<stop offset="0.161458" stop-color="#450A0A" stop-opacity="0"/>
<stop offset="0.223958" stop-color="#450A0A"/>
</linearGradient>
<linearGradient id="paint34_linear_270_1952" x1="1914.98" y1="1370.9" x2="2394.32" y2="819.911" gradientUnits="userSpaceOnUse">
<stop offset="0.145833" stop-color="#450A0A" stop-opacity="0"/>
<stop offset="0.223958" stop-color="#450A0A"/>
</linearGradient>
<linearGradient id="paint35_linear_270_1952" x1="1836.76" y1="1415.64" x2="2059.7" y2="597.683" gradientUnits="userSpaceOnUse">
<stop offset="0.127329" stop-color="#450A0A" stop-opacity="0"/>
<stop offset="0.474815" stop-color="#450A0A"/>
<stop offset="0.901042" stop-color="#450A0A"/>
</linearGradient>
<linearGradient id="paint36_linear_270_1952" x1="1822.6" y1="1390.84" x2="1213.56" y2="944.722" gradientUnits="userSpaceOnUse">
<stop offset="0.127329" stop-color="#450A0A" stop-opacity="0"/>
<stop offset="0.474815" stop-color="#450A0A"/>
<stop offset="0.901042" stop-color="#450A0A"/>
</linearGradient>
<linearGradient id="paint37_linear_270_1952" x1="1862.73" y1="1361.26" x2="2307.83" y2="598.564" gradientUnits="userSpaceOnUse">
<stop offset="0.114583" stop-color="#450A0A" stop-opacity="0"/>
<stop offset="0.223958" stop-color="#450A0A"/>
</linearGradient>
<linearGradient id="paint38_linear_270_1952" x1="1846.58" y1="1348.83" x2="2431.34" y2="1141.92" gradientUnits="userSpaceOnUse">
<stop offset="0.125" stop-color="#450A0A" stop-opacity="0"/>
<stop offset="0.223958" stop-color="#450A0A"/>
</linearGradient>
<linearGradient id="paint39_linear_270_1952" x1="1848.31" y1="1366.28" x2="1504.8" y2="721.799" gradientUnits="userSpaceOnUse">
<stop offset="0.119792" stop-color="#450A0A" stop-opacity="0"/>
<stop offset="0.223958" stop-color="#450A0A"/>
</linearGradient>
<linearGradient id="paint40_linear_270_1952" x1="1837.86" y1="1356.67" x2="1652.09" y2="1363.49" gradientUnits="userSpaceOnUse">
<stop offset="0.130208" stop-color="#450A0A" stop-opacity="0"/>
<stop offset="0.223958" stop-color="#450A0A"/>
</linearGradient>
<linearGradient id="paint41_linear_270_1952" x1="1860.33" y1="1346.58" x2="1764.19" y2="1756.63" gradientUnits="userSpaceOnUse">
<stop offset="0.127329" stop-color="#450A0A" stop-opacity="0"/>
<stop offset="0.474815" stop-color="#450A0A"/>
<stop offset="0.864583" stop-color="#450A0A" stop-opacity="0.32"/>
</linearGradient>
</defs>
</svg>
